<svg id="_x33_0" enable-background="new 0 0 64 64" height="512" viewBox="0 0 64 64" width="512" xmlns="http://www.w3.org/2000/svg"><g><g><path d="m20 17h1v-2.969c0-2.778 2.253-5.031 5.031-5.031.64 0 1.274.122 1.868.36l.386.155c2.245.898 4.628 1.396 7.041 1.475l5.674.01v2.818c2.862-.68 5-3.251 5-6.318 0-1.582-.568-3.033-1.511-4.161l-.388-.425c-1.177-1.182-2.805-1.914-4.601-1.914h-11.815c-6.443 0-11.685 5.241-11.685 11.685 0 .955.117 1.909.349 2.835l.855 3.417c.43-1.13 1.515-1.937 2.796-1.937z" fill="#f0bc5e"/></g><g><g><path d="m34 53c-1.654 0-3-1.346-3-3s1.346-3 3-3 3 1.346 3 3-1.346 3-3 3z" fill="#f0bc5e"/></g></g><g><g><path d="m8 29c-1.654 0-3-1.346-3-3s1.346-3 3-3 3 1.346 3 3-1.346 3-3 3z" fill="#f0bc5e"/></g></g><g><g><path d="m8 29c-1.654 0-3-1.346-3-3s1.346-3 3-3 3 1.346 3 3-1.346 3-3 3z" fill="#f0bc5e"/></g></g><g><path d="m27 18c.551 0 1 .448 1 1h2c0-1.654-1.346-3-3-3s-3 1.346-3 3h2c0-.552.449-1 1-1z"/><path d="m35 18c.551 0 1 .448 1 1h2c0-1.654-1.346-3-3-3s-3 1.346-3 3h2c0-.552.449-1 1-1z"/><path d="m36 22v-1h-10v1c0 2.757 2.243 5 5 5s5-2.243 5-5zm-7.829 1h5.657c-.413 1.164-1.525 2-2.829 2s-2.415-.836-2.828-2z"/><path d="m58.21 8c-2.351 0-4.338 1.684-4.725 4.003l-.357 2.141c-1.227.376-2.128 1.507-2.128 2.856v2.343c0 1.336.52 2.592 1.464 3.536l.536.535v5.349c0 1.615-.897 3.067-2.341 3.789-.586.294-1.241.448-1.895.448h-11.944l-.659-3.292c2.303-1.23 4.113-3.256 5.075-5.708h.764c2.206 0 4-1.794 4-4s-1.794-4-4-4v-5.998l-6.641-.012c-2.304-.075-4.559-.547-6.701-1.403l-.388-.156c-.715-.286-1.469-.431-2.239-.431-3.325 0-6.031 2.706-6.031 6.031v1.969c-2.206 0-4 1.794-4 4s1.794 4 4 4h.764c.962 2.452 2.771 4.478 5.075 5.708l-.689 3.442-6.148 1.229c-2.292.458-4.36 1.717-5.821 3.542-1.406 1.76-2.181 3.968-2.181 6.221v12.858c0 3.309 2.691 6 6 6h28c1.103 0 2-.897 2-2v-18h2.185c3.983 0 7.773-1.72 10.396-4.718 2.205-2.518 3.419-5.749 3.419-9.097v-16.395c0-2.642-2.148-4.79-4.79-4.79zm-38.21 14c-1.103 0-2-.897-2-2s.897-2 2-2v2c0 .684.071 1.35.191 2zm33-5c0-.552.449-1 1-1h2c.551 0 1 .448 1 1s-.449 1-1 1h-1v2h1c1.654 0 3-1.346 3-3s-1.346-3-3-3h-.82l.278-1.669c.226-1.351 1.383-2.331 2.752-2.331 1.538 0 2.79 1.252 2.79 2.79v9.21h-6.586l-.535-.535c-.567-.567-.879-1.32-.879-2.122zm-15.766 18-1.653 2.755-2.337-.935 3.033-1.82zm6.766-15c0 1.103-.897 2-2 2h-.191c.12-.65.191-1.316.191-2v-2c1.103 0 2 .897 2 2zm-22 0v-5.969c0-2.222 1.809-4.031 4.031-4.031.515 0 1.019.097 1.496.287l.388.156c2.36.943 4.843 1.463 7.41 1.546l4.675.009v8.002c0 4.963-4.038 9-9 9s-9-4.037-9-9zm9 11c1.142 0 2.244-.176 3.28-.5l.601 3.005-3.881 2.329-3.881-2.329.601-3.005c1.036.324 2.138.5 3.28.5zm-5.183 4.056 2.94 1.764-2.35.94-1.559-2.51zm-2.817 25.944v-2h22v2zm22-4h-22v-14h22zm13.077-20.034c-2.244 2.563-5.485 4.034-8.892 4.034h-26.185c-1.103 0-2 .897-2 2v12h-4v2h4v4h-4c-2.206 0-4-1.794-4-4v-12.858c0-1.8.619-3.565 1.743-4.97 1.167-1.459 2.819-2.465 4.652-2.831l3.358-.672 2.84 4.571 5.318-2.127.089.053.089-.053 5.331 2.132 3.146-5.245h9.198c.962 0 1.927-.228 2.789-.658 2.126-1.063 3.447-3.2 3.447-5.578v-4.764h6v5.185c0 2.863-1.038 5.627-2.923 7.781z"/><path d="m11.852 31.839c1.894-1.254 3.148-3.402 3.148-5.839 0-3.859-3.14-7-7-7s-7 3.141-7 7c0 2.437 1.254 4.585 3.148 5.839l.711 3.554c.186.931 1.011 1.607 1.961 1.607h2.36c.95 0 1.775-.676 1.961-1.607zm-8.852-5.839c0-2.757 2.243-5 5-5s5 2.243 5 5c0 2.414-1.721 4.434-4 4.899v-2.083c-.314.112-.648.184-1 .184s-.686-.072-1-.184v2.083c-2.279-.465-4-2.485-4-4.899zm3.82 9-.44-2.197c.521.124 1.062.197 1.62.197s1.099-.073 1.62-.197l-.44 2.197z"/><path d="m7 13h2v4h-2z"/><path d="m2.79 13.837h2v4.001h-2z" transform="matrix(.924 -.383 .383 .924 -5.771 2.655)"/><path d="m10.209 14.837h4.001v2h-4.001z" transform="matrix(.383 -.924 .924 .383 -7.095 21.054)"/></g></g></svg>